<svg width="19" height="18" viewBox="0 0 19 18" fill="none" xmlns="http://www.w3.org/2000/svg">
<g clip-path="url(#clip0_339_10223)">
<path d="M17.7844 6.73748C17.7355 6.53036 17.5391 6.38645 17.3554 6.42305C17.1395 6.46623 17.0257 6.64769 17.0651 6.88578C17.0863 7.01344 17.1101 7.14265 17.133 7.2678C17.1933 7.59694 17.2556 7.93765 17.2781 8.27273C17.3376 9.15377 17.2872 9.93282 17.1245 10.6546C16.6734 12.6526 15.6647 14.2792 14.126 15.4897C12.464 16.7972 10.5452 17.3885 8.42268 17.2477C7.71872 17.2011 7.03761 17.0637 6.39779 16.8397C4.77243 16.2706 3.43586 15.3079 2.42529 13.9782C1.50858 12.7721 0.95887 11.3983 0.791484 9.89527C0.716709 9.22448 0.710764 8.60312 0.773025 7.99553C0.853745 7.20867 1.04929 6.44683 1.35465 5.73098C1.94691 4.34247 2.82326 3.21113 3.9596 2.3692C5.25644 1.40838 6.76917 0.867117 8.45616 0.760428C9.35879 0.703486 10.2348 0.7792 11.0611 0.986007C12.3892 1.31827 13.5525 1.90271 14.5186 2.72337C14.9401 3.08129 15.3183 3.49272 15.6722 3.97798C15.6665 3.97798 15.6612 3.97798 15.6556 3.97766C15.5455 3.97422 15.4356 3.97047 15.3255 3.96703C15.1109 3.95983 14.8891 3.95232 14.6704 3.94763C14.6672 3.94763 14.6638 3.94763 14.6607 3.94763C14.4467 3.94763 14.2968 4.09781 14.2862 4.32401C14.2821 4.41537 14.3153 4.50422 14.38 4.57431C14.4485 4.64814 14.5462 4.69257 14.6478 4.69601C15.2692 4.71635 15.991 4.73919 16.6953 4.75827C16.8176 4.76203 16.9071 4.73387 16.97 4.6738C17.0328 4.61373 17.0644 4.52519 17.0666 4.40285L17.072 4.11689C17.0823 3.57969 17.0929 3.02435 17.091 2.47746C17.091 2.36889 17.0088 2.2256 16.9121 2.16427C16.7932 2.08918 16.6549 2.08105 16.542 2.14269C16.4228 2.20776 16.3508 2.33698 16.3499 2.48809C16.3477 2.80785 16.348 3.12478 16.3486 3.46049C16.3486 3.52619 16.3486 3.59252 16.3486 3.65916C15.9037 3.02592 15.3881 2.4737 14.8149 2.01691C13.2662 0.78139 11.4178 0.105906 9.32187 0.00860313C8.61322 -0.0242482 7.87704 0.0370742 7.13335 0.191006C4.98456 0.635593 3.22749 1.70373 1.91093 3.36569C0.78554 4.78674 0.151354 6.41022 0.0258931 8.19108C-0.0398095 9.12405 0.0196357 10.0236 0.202977 10.8642C0.547759 12.4473 1.28488 13.8653 2.39369 15.0789C3.08075 15.831 3.90266 16.463 4.83689 16.958C6.00045 17.5743 7.23722 17.9207 8.51341 17.987C8.67892 17.9955 8.8438 17.9998 9.00806 17.9998C9.45828 17.9998 9.90287 17.9676 10.3349 17.9032C11.2376 17.7686 12.0986 17.5064 12.8939 17.1235C14.1989 16.4953 15.3193 15.566 16.2238 14.3624C17.2594 12.9842 17.8579 11.3952 18.0027 9.63966C18.0828 8.66851 18.0096 7.69205 17.785 6.73717L17.7844 6.73748Z" fill="white"/>
<path d="M9.64042 14.1848C10.1028 14.1848 10.5653 14.1848 11.0274 14.1848C11.1982 14.1844 11.3681 14.1841 11.5383 14.1835C11.9447 14.1819 12.3649 14.1804 12.7776 14.1888C12.7835 14.1888 12.7894 14.1888 12.7954 14.1888C13.0385 14.1888 13.1927 14.0884 13.2797 14.0027C13.3952 13.8891 13.464 13.7295 13.4637 13.5759V13.4454C13.4637 13.0334 13.4631 12.6073 13.3958 12.1962C13.2797 11.4891 12.9212 10.883 12.3302 10.395C11.6972 9.87247 10.9363 9.61561 10.004 9.60998C9.88821 9.60935 9.77214 9.60841 9.65637 9.60747C9.11855 9.60309 8.56227 9.59903 8.01506 9.61467C7.72284 9.62312 7.34114 9.64564 6.9829 9.74514C5.75552 10.0852 4.9746 10.8652 4.66204 12.0632C4.56787 12.4236 4.5735 12.7915 4.5785 13.1473C4.58007 13.2461 4.58132 13.3485 4.58069 13.4486C4.57913 13.686 4.64076 13.8694 4.76435 13.9939C4.88918 14.1197 5.07597 14.1835 5.31907 14.1838C6.20323 14.1844 7.08772 14.1841 7.9722 14.1841H8.93208V14.1848H9.64073H9.64042ZM12.7203 13.2465C12.7203 13.3144 12.7203 13.3826 12.72 13.4511H5.31156C5.26244 12.6752 5.31156 11.8723 5.91039 11.2134C6.37187 10.7053 6.91407 10.4316 7.52135 10.3997C8.6117 10.3424 9.49744 10.333 10.3081 10.3699C11.4942 10.4241 12.4012 11.1559 12.6753 12.2797L12.6846 12.3179C12.7012 12.3836 12.7169 12.4458 12.7178 12.5053C12.7216 12.7502 12.7209 12.9912 12.7203 13.2461V13.2465Z" fill="white"/>
<path d="M8.97176 9.45957C8.98521 9.45957 8.99898 9.45957 9.01243 9.45925C9.03027 9.45957 9.0481 9.45988 9.06593 9.45988C10.4945 9.45988 11.7206 8.25377 11.7566 6.79861C11.7942 5.27525 10.6065 3.99749 9.10911 3.95056C8.36073 3.92772 7.6574 4.19648 7.12552 4.70896C6.62618 5.18984 6.31675 5.855 6.27702 6.53393C6.23103 7.32079 6.50072 8.06198 7.03635 8.62076C7.54883 9.15515 8.25216 9.45957 8.97207 9.45957H8.97176ZM6.99724 6.71414C6.99568 6.17413 7.22032 5.64506 7.61391 5.26305C8.01157 4.87697 8.535 4.6736 9.0894 4.69206C10.0499 4.72304 11.0592 5.56685 11.0311 6.77296C11.0064 7.84141 10.0987 8.73371 9.04341 8.73371C9.03559 8.73371 9.02745 8.73371 9.01963 8.73371H9.01431C7.90519 8.73371 7.00068 7.82858 6.99724 6.71445V6.71414Z" fill="white"/>
</g>
<defs>
<clipPath id="clip0_339_10223">
<rect width="18.0338" height="18" fill="white"/>
</clipPath>
</defs>
</svg>
