<svg width="18" height="18" viewBox="0 0 18 18" fill="none" xmlns="http://www.w3.org/2000/svg">
<path d="M15.3638 2.25H12.37L12.745 6C12.745 6 13.495 6.75 14.62 6.75C15.4277 6.75 15.9777 6.36334 16.2237 6.14527C16.3217 6.05836 16.3576 5.92568 16.3361 5.79646L15.8076 2.62602C15.7715 2.40904 15.5837 2.25 15.3638 2.25Z" stroke="#464646" stroke-width="0.9"/>
<path d="M12.37 2.25L12.745 6C12.745 6 11.995 6.75 10.87 6.75C9.745 6.75 8.995 6 8.995 6V2.25H12.37Z" stroke="#464646" stroke-width="0.9"/>
<path d="M8.995 2.25V6C8.995 6 8.245 6.75 7.12 6.75C5.995 6.75 5.245 6 5.245 6L5.62 2.25H8.995Z" stroke="#464646" stroke-width="0.9"/>
<path d="M5.61994 2.25H2.62614C2.40616 2.25 2.21843 2.40904 2.18227 2.62602L1.65385 5.79647C1.63232 5.92568 1.66819 6.05836 1.76622 6.14527C2.01216 6.36334 2.56215 6.75 3.36992 6.75C4.49492 6.75 5.24494 6 5.24494 6L5.61994 2.25Z" stroke="#464646" stroke-width="0.9"/>
<path d="M2.25 6.75V14.25C2.25 15.0784 2.92157 15.75 3.75 15.75H14.25C15.0784 15.75 15.75 15.0784 15.75 14.25V6.75" stroke="#464646" stroke-width="0.9"/>
<path d="M11.125 15.75V11.25C11.125 10.4216 10.4534 9.75 9.62499 9.75H8.12499C7.29657 9.75 6.625 10.4216 6.625 11.25V15.75" stroke="#464646" stroke-width="0.9" stroke-miterlimit="16"/>
</svg>
