<svg width="15" height="15" viewBox="0 0 15 15" fill="none" xmlns="http://www.w3.org/2000/svg">
<path d="M1.89969 2.68369C1.88425 2.56791 1.92463 2.45211 2.01978 2.38437C2.4547 2.07471 3.94657 1.25 7.5002 1.25C11.0538 1.25 12.5457 2.0747 12.9806 2.38437C13.0758 2.45211 13.1161 2.56791 13.1007 2.68369L12.0387 10.6486C11.9357 11.4215 11.4779 12.102 10.801 12.4888L10.6011 12.6031C8.67963 13.7011 6.32076 13.7011 4.39933 12.6031L4.1994 12.4888C3.52245 12.102 3.06473 11.4215 2.96168 10.6486L1.89969 2.68369Z" stroke="#9D2137"/>
<path d="M1.875 3.125C3.48214 4.79166 11.5179 4.79164 13.125 3.125" stroke="#9D2137"/>
<path d="M6.875 11.25L8.75 9.0625M8.75 9.0625L11.875 10.625M8.75 9.0625L12.5 7.1875" stroke="#9D2137"/>
<path d="M2.8125 9.99974L4.83497 9.7108C4.94003 9.6958 5.04654 9.72599 5.12807 9.79399L6.875 11.2497L8.75 13.1247" stroke="#9D2137"/>
<path d="M5 9.68708L6.63431 7.78039C6.76775 7.62464 7.00156 7.60508 7.15913 7.73633L8.75 9.06208" stroke="#9D2137"/>
</svg>
