<svg width="16" height="16" viewBox="0 0 16 16" fill="none" xmlns="http://www.w3.org/2000/svg">
<path d="M14 2.4V13.6C14 13.8209 13.8209 14 13.6 14H2.4C2.17909 14 2 13.8209 2 13.6V2.4C2 2.17909 2.17909 2 2.4 2H13.6C13.8209 2 14 2.17909 14 2.4Z" stroke="white" stroke-linecap="round" stroke-linejoin="round"/>
<path d="M2 10.6665L6.66667 8.6665L14 11.9998" stroke="white" stroke-linecap="round" stroke-linejoin="round"/>
<path d="M10.6668 6.66667C9.93043 6.66667 9.3335 6.06971 9.3335 5.33333C9.3335 4.59695 9.93043 4 10.6668 4C11.4032 4 12.0002 4.59695 12.0002 5.33333C12.0002 6.06971 11.4032 6.66667 10.6668 6.66667Z" stroke="white" stroke-linecap="round" stroke-linejoin="round"/>
</svg>
