<svg width="18" height="18" viewBox="0 0 18 18" fill="none" xmlns="http://www.w3.org/2000/svg">
<path d="M3.75 9V13.5C3.75 13.5 3.75 15.75 9 15.75C14.25 15.75 14.25 13.5 14.25 13.5V9" stroke="#464646" stroke-width="1.2" stroke-linecap="round"/>
<path d="M3.75 4.5V9C3.75 9 3.75 11.25 9 11.25C14.25 11.25 14.25 9 14.25 9V4.5" stroke="#464646" stroke-width="1.2" stroke-linecap="round"/>
<path d="M9 2.25C14.25 2.25 14.25 4.5 14.25 4.5C14.25 4.5 14.25 6.75 9 6.75C3.75 6.75 3.75 4.5 3.75 4.5C3.75 4.5 3.75 2.25 9 2.25Z" stroke="#464646" stroke-width="1.2" stroke-linecap="round"/>
</svg>
