<svg width="18" height="18" viewBox="0 0 18 18" fill="none" xmlns="http://www.w3.org/2000/svg">
<path d="M1.5 11.25V6.75C1.5 4.26472 3.51472 2.25 6 2.25H12C14.4853 2.25 16.5 4.26472 16.5 6.75V11.25C16.5 13.7353 14.4853 15.75 12 15.75H6C3.51472 15.75 1.5 13.7353 1.5 11.25Z" stroke="#464646" stroke-width="1.2" stroke-linecap="round"/>
<path d="M6.32034 5.95169H6.17749C5.07292 5.95169 4.17749 6.84712 4.17749 7.95169V8.95169V9.95169C4.17749 11.0563 5.07292 11.9517 6.17749 11.9517H6.32034C6.36955 11.9517 6.42855 11.9521 6.49513 11.9528C7.62193 11.9654 8.55249 11.0691 8.55249 9.94223V9V7.94386C8.55249 6.86146 7.6909 5.97002 6.60862 5.95431C6.49475 5.95265 6.39598 5.95169 6.32034 5.95169Z" stroke="#464646" stroke-width="1.2" stroke-linecap="round"/>
<path d="M9.05249 12.0966L7.05249 10.0966" stroke="#464646" stroke-width="1.2" stroke-linecap="round"/>
<path d="M13.8225 11.5477C13.3225 12.0477 13.1261 11.9994 12.5904 11.9994H12.4475C11.3429 11.9994 10.4475 11.1039 10.4475 9.99936V8.99936V7.99936C10.4475 6.89479 11.3429 5.99936 12.4475 5.99936H12.5904C13.1261 5.99936 13.4909 6.01478 13.8225 6.54767" stroke="#464646" stroke-width="1.2" stroke-linecap="round"/>
</svg>
