<svg width="15" height="15" viewBox="0 0 15 15" fill="none" xmlns="http://www.w3.org/2000/svg">
<path d="M1.89945 2.68369C1.88401 2.56791 1.92439 2.45211 2.01953 2.38437C2.45445 2.07471 3.94633 1.25 7.49995 1.25C11.0536 1.25 12.5455 2.0747 12.9804 2.38437C13.0755 2.45211 13.1159 2.56791 13.1005 2.68369L12.0385 10.6486C11.9355 11.4215 11.4777 12.102 10.8008 12.4888L10.6008 12.6031C8.67939 13.7011 6.32051 13.7011 4.39908 12.6031L4.19916 12.4888C3.5222 12.102 3.06448 11.4215 2.96144 10.6486L1.89945 2.68369Z" stroke="#9D2137"/>
<path d="M1.875 3.125C3.48214 4.79166 11.5179 4.79164 13.125 3.125" stroke="#9D2137"/>
<path d="M6.875 11.25L8.75 9.0625M8.75 9.0625L11.875 10.625M8.75 9.0625L12.5 7.1875" stroke="#9D2137"/>
<path d="M2.8125 9.99998L4.83497 9.71104C4.94003 9.69604 5.04654 9.72623 5.12807 9.79423L6.875 11.25L8.75 13.125" stroke="#9D2137"/>
<path d="M5 9.68744L6.63431 7.78076C6.76775 7.62501 7.00156 7.60544 7.15913 7.73669L8.75 9.06244" stroke="#9D2137"/>
</svg>
