<svg width="18" height="18" viewBox="0 0 18 18" fill="none" xmlns="http://www.w3.org/2000/svg">
<path d="M10.5 11.25L11.625 12.375" stroke="#464646" stroke-width="1.2" stroke-linecap="round"/>
<path d="M6.375 9.375C6.375 10.6177 7.38236 11.625 8.625 11.625C9.24743 11.625 9.81075 11.3722 10.2181 10.9639C10.624 10.5568 10.875 9.99525 10.875 9.375C10.875 8.13232 9.86768 7.125 8.625 7.125C7.38236 7.125 6.375 8.13232 6.375 9.375Z" stroke="#464646" stroke-width="1.2" stroke-linecap="round"/>
<path d="M3 16.05V1.95C3 1.70147 3.20147 1.5 3.45 1.5H12.1886C12.3079 1.5 12.4224 1.54741 12.5068 1.63181L14.8682 3.9932C14.9526 4.07759 15 4.19205 15 4.3114V16.05C15 16.2985 14.7985 16.5 14.55 16.5H3.45C3.20147 16.5 3 16.2985 3 16.05Z" stroke="#464646" stroke-width="1.2" stroke-linecap="round"/>
<path d="M12 1.5V4.05C12 4.29853 12.2015 4.5 12.45 4.5H15" stroke="#464646" stroke-width="1.2" stroke-linecap="round"/>
</svg>
